<svg width="24" height="24" viewBox="0 0 24 24" fill="none" xmlns="http://www.w3.org/2000/svg">
<path fill-rule="evenodd" clip-rule="evenodd" d="M17.9593 3.42721L16.8593 6.73727H16.8493C16.7693 6.99728 17.0093 7.23727 17.2693 7.15719L20.5793 6.04708C22.0493 5.55709 22.4793 3.69723 21.3893 2.60714C20.2993 1.5173 18.4492 1.95724 17.9593 3.42721ZM15.0594 2.94723C14.9673 3.16329 14.8754 3.38156 14.7843 3.60006C14.6775 3.85665 14.5719 4.11325 14.4694 4.36715C13.8094 5.95724 13.1493 7.55709 12.4893 9.15719C12.4767 9.18649 12.4668 9.21017 12.4577 9.22872C12.4538 9.23678 12.45 9.24386 12.4463 9.24996L12.4383 9.26217C12.4269 9.27755 12.4146 9.2861 12.3977 9.28927C12.3742 9.29391 12.3415 9.28829 12.2893 9.27706C11.9993 9.23727 11.7094 9.23727 11.4193 9.27706C11.3294 9.28707 11.2693 9.24728 11.2293 9.15719L9.7294 5.52706C9.72085 5.50997 9.71389 5.49215 9.70743 5.47409L9.69497 5.43893C9.68972 5.42404 9.68435 5.40963 9.67801 5.39572C9.67398 5.38693 9.66971 5.37814 9.66482 5.36984C9.66018 5.36178 9.65506 5.35421 9.64932 5.34713C9.64932 5.32711 9.64932 5.30709 9.61929 5.28707C9.61929 5.23727 9.58938 5.18722 9.57937 5.14718C9.28933 4.45724 9.0093 3.7673 8.71939 3.0671C8.67935 2.96725 8.70938 2.89718 8.81936 2.85714C9.54934 2.62716 10.2893 2.46725 11.0493 2.40719C12.3793 2.29708 13.6693 2.44723 14.9293 2.85714C14.9433 2.86276 14.9588 2.86593 14.9745 2.86935C14.9892 2.87252 15.0041 2.8757 15.0181 2.88082C15.0232 2.88253 15.0283 2.88473 15.0334 2.88717L15.0404 2.89132C15.0492 2.89669 15.0574 2.90353 15.0646 2.91232L15.0684 2.91744L15.0719 2.92282C15.0746 2.92721 15.0772 2.93185 15.0794 2.93722L15.0594 2.94723ZM5.17923 9.99728C5.22928 10.0373 5.28921 10.0573 5.34927 10.0774C6.46927 10.5373 7.59927 11.0073 8.71927 11.4773C8.72769 11.4802 8.73611 11.4839 8.74478 11.4878L8.76846 11.4985C8.78384 11.5056 8.80044 11.5127 8.81924 11.5173C8.88931 11.5373 8.91922 11.5874 8.89932 11.6672C8.87637 11.799 8.8666 11.9343 8.86429 12.0691C8.86258 12.1692 8.86502 12.269 8.86929 12.3672L8.8699 12.3891C8.87039 12.3996 8.87124 12.4101 8.87234 12.4209L8.8743 12.4389L8.8782 12.469L8.8793 12.4763L8.88247 12.5005L8.8854 12.5246C8.88772 12.5461 8.88931 12.5671 8.88931 12.5874C8.90188 12.6569 8.90652 12.6865 8.87784 12.7089C8.86111 12.7219 8.83328 12.7326 8.78921 12.7473L8.58426 12.8342L8.3815 12.9192L7.99917 13.0771L7.95193 13.0964L7.92044 13.1096C7.71377 13.1945 7.5065 13.28 7.29922 13.3672L6.2958 13.7846C5.09341 14.2851 3.89444 14.7841 2.68924 15.2773C2.64932 15.2973 2.59927 15.3173 2.55923 15.3374C2.53921 15.3293 2.52554 15.3147 2.51577 15.2976C2.50125 15.2722 2.49527 15.2412 2.48929 15.2172C2.27932 14.5673 2.13931 13.9072 2.05923 13.2273C2.01834 12.8584 2.00064 12.4895 2.00003 12.1206C1.99966 11.9494 2.00296 11.7783 2.0093 11.6071C2.04922 10.7373 2.21927 9.87716 2.48929 9.04733C2.48929 9.04269 2.49026 9.03805 2.49185 9.03341L2.4971 9.02072L2.4982 9.01852C2.50357 9.00656 2.5093 8.99337 2.5093 8.97726C2.51931 8.93722 2.54922 8.9172 2.58926 8.93722C2.61929 8.94723 2.64932 8.96725 2.68924 8.97726C2.83316 9.03585 2.97671 9.09493 3.12002 9.15426L3.32132 9.23751L3.47366 9.30099L3.78982 9.43258L3.82425 9.44723L3.84036 9.45382C4.21255 9.60909 4.58474 9.76437 4.95926 9.9172C4.97183 9.92233 4.9844 9.92794 4.99698 9.93356C5.03445 9.9504 5.0718 9.96725 5.10928 9.96725L5.12246 9.9736C5.12918 9.97677 5.13784 9.98068 5.14688 9.98434C5.16299 9.99117 5.1802 9.99728 5.18924 9.99728H5.17923ZM7.93936 4.21725C7.81936 3.93722 7.70938 3.65719 7.59939 3.3674L7.57937 3.37716C7.52932 3.29733 7.46939 3.28732 7.39932 3.31735L7.27932 3.37716C5.7294 4.20724 4.4794 5.35739 3.52932 6.83737C3.3594 7.10739 3.19937 7.39718 3.04934 7.68722C3.04507 7.69796 3.03946 7.7087 3.03384 7.71945C3.02078 7.7441 3.00772 7.76876 3.01138 7.79342C3.01223 7.79928 3.01407 7.80514 3.01712 7.811C3.02163 7.81979 3.02884 7.82858 3.03933 7.83737C3.04544 7.83932 3.05154 7.84176 3.0574 7.84445L3.06802 7.84957L3.08011 7.85592C3.0917 7.86227 3.09939 7.8674 3.09939 7.8674C3.11392 7.87203 3.13089 7.87692 3.14798 7.8818C3.16592 7.88693 3.18399 7.89205 3.19937 7.89718C3.49698 8.01534 3.78836 8.13644 4.07864 8.25704C4.20779 8.31076 4.33682 8.36422 4.46609 8.41744C4.56363 8.45773 4.66128 8.49777 4.7593 8.53732C5.50918 8.84933 6.2615 9.16134 7.01382 9.47335L8.09231 9.92086L9.23941 10.3972C9.30862 10.427 9.33865 10.4419 9.36233 10.435C9.38186 10.4294 9.397 10.4087 9.42593 10.3691L9.44937 10.3374C9.61929 10.1074 9.80935 9.9172 10.0293 9.74728C10.1193 9.67721 10.1393 9.57736 10.0994 9.46725L7.93936 4.21725ZM3.42935 16.2673C3.4794 16.2673 3.52932 16.2373 3.56936 16.2273C4.62014 15.789 5.67398 15.3508 6.72757 14.9143C7.54898 14.5739 8.37014 14.2348 9.18936 13.8974C9.30935 13.8474 9.39932 13.8774 9.4794 13.9672L9.50955 14.0058L9.54007 14.0434C9.60794 14.1262 9.67923 14.2046 9.75503 14.2793C9.85159 14.3742 9.95559 14.4633 10.0694 14.5473C10.1894 14.6374 10.1894 14.6074 10.1293 14.7573L8.56936 18.5373C8.40701 18.9279 8.24466 19.3213 8.0823 19.7143L8.03128 19.8381L7.69876 20.6418L7.6094 20.8574C7.57425 20.9426 7.5618 20.9824 7.53799 20.9912C7.52542 20.9956 7.50979 20.9917 7.48623 20.9809C7.46499 20.9714 7.43716 20.9563 7.39932 20.9375C6.80935 20.6374 6.2593 20.2773 5.73929 19.8674L5.7272 19.8576L5.70425 19.8379C5.67532 19.8117 5.64493 19.7844 5.6094 19.7773V19.7873C5.6094 19.7573 5.6094 19.7573 5.57937 19.7573C5.57937 19.7573 5.56936 19.7273 5.54934 19.7273C5.54934 19.7273 5.54654 19.719 5.54092 19.7109L5.53579 19.705C5.53409 19.7033 5.53225 19.7016 5.53018 19.7004C5.52701 19.6985 5.52334 19.6972 5.51931 19.6972C5.51931 19.6972 5.51553 19.686 5.50796 19.6772C5.5032 19.6718 5.49698 19.6674 5.48929 19.6674L5.45938 19.6374L5.44876 19.6279C5.30227 19.4909 5.15579 19.354 5.0093 19.2072C4.2294 18.4472 3.59939 17.5874 3.09939 16.6274L3.09573 16.6203L3.08987 16.6108L3.08438 16.6025L3.07779 16.592L3.07339 16.5847L3.06936 16.5774C3.02932 16.5073 3.04934 16.4472 3.1293 16.4174C3.18802 16.396 3.24966 16.3774 3.30801 16.3542L3.32608 16.3469L3.3522 16.3352C3.36953 16.3271 3.3865 16.3183 3.40274 16.3088C3.41897 16.2993 3.4346 16.2888 3.44937 16.2773L3.42935 16.2673ZM16.1892 6.46725C16.4392 5.55709 16.6992 4.64718 17.0193 3.74728L17.0293 3.73727C17.0246 3.71823 17.0128 3.70358 16.9976 3.69137C16.9883 3.68405 16.9777 3.67745 16.9665 3.67135L16.9392 3.65719C16.7293 3.52706 16.5093 3.40719 16.2893 3.29708C16.2533 3.27658 16.22 3.27462 16.192 3.28683C16.1657 3.29855 16.1439 3.32296 16.1293 3.35714C16.0692 3.48727 16.0293 3.63717 15.9492 3.7673C15.9492 3.7944 15.9433 3.81857 15.9348 3.84127C15.9287 3.85787 15.9213 3.87374 15.9138 3.88961C15.9049 3.90841 15.896 3.92721 15.8893 3.94723C15.3993 5.12716 14.9093 6.30709 14.4193 7.49728C14.291 7.80416 14.1627 8.11105 14.0354 8.41793C13.9451 8.63595 13.8551 8.85397 13.766 9.07199L13.6595 9.3337L13.5893 9.50729C13.5592 9.58712 13.5692 9.64718 13.6293 9.68722C13.8793 9.87716 14.0993 10.0871 14.2793 10.3471C14.3293 10.4072 14.3693 10.4272 14.4392 10.3872C14.4458 10.384 14.4535 10.3808 14.4618 10.3776L14.4806 10.3703L14.5193 10.3571C15.0396 10.1435 15.5598 9.92843 16.0797 9.71285L17.2964 9.20797L17.9551 8.93453C18.2669 8.8049 18.5783 8.67575 18.8893 8.54708C19.1897 8.42062 19.4903 8.29415 19.7907 8.16915C20.0602 8.05685 20.3297 7.94576 20.5993 7.83712C20.6792 7.79708 20.6992 7.74728 20.6593 7.6672C20.5493 7.45724 20.4392 7.24728 20.3192 7.04708C20.3069 7.02975 20.2939 7.01486 20.2799 7.00289C20.2653 6.9902 20.2497 6.98068 20.2327 6.97433C20.2205 6.96969 20.2075 6.96701 20.1939 6.96603L20.1863 6.96578C20.1823 6.96554 20.1783 6.96578 20.1741 6.96603C20.1689 6.96627 20.1636 6.96701 20.1582 6.96774C20.1541 6.96823 20.1498 6.96896 20.1455 6.97018L20.1354 6.97238C20.1302 6.97384 20.1248 6.97531 20.1193 6.97726L19.7322 7.11056C19.5699 7.16598 19.4062 7.22164 19.2393 7.27706C18.9715 7.36178 18.7013 7.4421 18.4301 7.51998C18.2278 7.57784 18.0248 7.63449 17.8216 7.69064L17.5144 7.7756L17.5119 7.77633L17.5093 7.77706C17.3493 7.82711 17.1792 7.83712 17.0093 7.80709C16.4392 7.70724 16.0093 7.13717 16.1892 6.46725ZM21.7093 11.9873C21.7093 13.1772 21.5492 14.1872 21.2293 15.1772V15.1872C21.2211 15.2143 21.2101 15.237 21.1963 15.2548C21.1592 15.3029 21.1022 15.3164 21.0292 15.2871C18.9993 14.4472 16.9693 13.6071 14.9392 12.7573C14.8493 12.7172 14.8092 12.6472 14.8192 12.5471C14.8593 12.2573 14.8593 11.9773 14.8192 11.6872C14.8169 11.6662 14.8168 11.6464 14.819 11.6276C14.8214 11.6071 14.8268 11.5881 14.8355 11.5708C14.8396 11.5625 14.8444 11.5547 14.85 11.5471C14.8559 11.5393 14.8626 11.5319 14.8703 11.5249C14.886 11.5102 14.9055 11.4978 14.9292 11.4873C15.4638 11.2671 15.9983 11.0456 16.5327 10.8235C17.142 10.57 17.751 10.3161 18.3595 10.0622L19.4582 9.60397C19.9857 9.38424 20.5128 9.165 21.0392 8.94723C21.1592 8.89718 21.1692 8.89718 21.2093 9.02706C21.4292 9.68722 21.5692 10.3672 21.6492 11.0571L21.6532 11.1062C21.6819 11.4487 21.7093 11.7763 21.7093 11.9672V11.9873ZM8.79934 21.5273C9.79934 21.8471 10.8094 22.0073 11.8793 22.0073C11.9595 22.0039 12.042 22.0017 12.1266 21.9992C12.2848 21.9948 12.45 21.9902 12.6193 21.9773C13.3993 21.9172 14.1593 21.7673 14.8993 21.5273C14.9207 21.5205 14.9395 21.5149 14.956 21.51C14.9855 21.5012 15.0075 21.4946 15.023 21.4878C15.0374 21.4814 15.0463 21.4748 15.0506 21.466C15.0597 21.447 15.0469 21.4177 15.0208 21.3574L14.9993 21.3073L12.8993 16.2072C12.7493 15.8672 12.6094 15.5273 12.4694 15.1872C12.4593 15.167 12.4491 15.1491 12.4372 15.135C12.4223 15.1174 12.4044 15.1057 12.3799 15.1027C12.3656 15.101 12.349 15.1023 12.3294 15.1071C12.0093 15.1672 11.6894 15.1672 11.3693 15.1071C11.2993 15.0971 11.2693 15.1172 11.2493 15.1772C11.2393 15.1972 11.2294 15.2273 11.2194 15.2573C10.3793 17.2773 9.53933 19.2973 8.70938 21.3171C8.63931 21.4873 8.6293 21.4672 8.79934 21.5273ZM20.6992 16.4873C20.6992 16.4873 20.6692 16.5573 20.6393 16.5974C20.3693 17.1274 20.0592 17.6174 19.7093 18.0874C18.7992 19.2873 17.6792 20.2273 16.3393 20.9172C16.2499 20.967 16.2097 20.9943 16.1823 20.9848C16.1582 20.9765 16.1439 20.9401 16.1144 20.8654L16.0993 20.8274C15.2792 18.8315 14.4492 16.8354 13.6193 14.8393L13.5893 14.7673C13.5793 14.7473 13.5692 14.7273 13.5592 14.6972C13.5292 14.6474 13.5392 14.6074 13.5893 14.5774C13.8593 14.3874 14.0893 14.1574 14.2792 13.8874C14.3293 13.8173 14.3793 13.8274 14.4392 13.8574L15.4492 14.2773C16.2244 14.5964 16.9994 14.9196 17.7754 15.2434C18.1503 15.3999 18.5253 15.5564 18.9007 15.7124C19.4527 15.9419 20.0054 16.1706 20.5592 16.3974C20.5667 16.3999 20.5741 16.403 20.5817 16.4065L20.5972 16.4135C20.6158 16.4221 20.6358 16.4314 20.6592 16.4372C20.6721 16.4438 20.6851 16.4504 20.6927 16.4624C20.6968 16.4687 20.6992 16.4768 20.6992 16.4873ZM10.0594 12.1274C10.0594 13.1274 10.8594 13.9375 11.8594 13.9375C12.8594 13.9375 13.6593 13.1274 13.6593 12.1374C13.6693 11.1474 12.8494 10.3274 11.8594 10.3274C10.8694 10.3274 10.0594 11.1274 10.0594 12.1274ZM11.8694 12.7373C11.5393 12.7373 11.2693 12.4773 11.2693 12.1374V12.1274C11.2593 11.7973 11.5293 11.5273 11.8594 11.5273C12.1894 11.5273 12.4594 11.7873 12.4594 12.1174C12.4594 12.4572 12.1994 12.7373 11.8694 12.7373ZM9.60928 5.28732C9.60928 5.28732 9.63931 5.32736 9.63931 5.34738C9.61929 5.32736 9.60928 5.30734 9.60928 5.28732Z" fill="#A7AAAD"/>
</svg>
